<?xml version="1.0" encoding="UTF-8" standalone="no"?>
<svg width="527px" height="308px" viewBox="0 0 527 308" version="1.1" xmlns="http://www.w3.org/2000/svg" xmlns:xlink="http://www.w3.org/1999/xlink" xmlns:sketch="http://www.bohemiancoding.com/sketch/ns">
    <!-- Generator: Sketch 3.0.4 (8054) - http://www.bohemiancoding.com/sketch -->
    <title>Artboard 1</title>
    <desc>Created with Sketch.</desc>
    <defs></defs>
    <g id="Page-1" stroke="none" stroke-width="1" fill="none" fill-rule="evenodd" sketch:type="MSPage">
        <g id="Artboard-1" sketch:type="MSArtboardGroup" stroke="#FFFFFF">
            <path d="M30.7133152,30.9668675 C41.7112826,68.96476 36.2555504,136.893297 41.0832413,180.686747 C41.7815306,187.021141 41.6909157,212.11666 45.7687458,218.286145 C46.4392503,219.300573 48.062224,217.51506 49.2089631,217.129518 C95.2870624,201.637721 160.469894,224.43744 210.554263,216.018072 C215.343492,215.212985 238.806334,216.831143 241.950726,213.659639 C244.257785,211.332688 235.846215,139.125123 235.16436,132.054217 C234.718692,127.432598 231.771274,37.3819413 229.430664,33.4472892 C224.741331,25.5643476 203.813986,27.278301 196.932256,27.6641566 C163.759071,29.5241627 131.667356,35.0503372 99.0607592,40.5316265 C80.4981977,43.6520617 56.3647287,35.9947812 39.4303244,41.688253" id="Path" stroke-width="3" sketch:type="MSShapeGroup"></path>
            <g id="Big-Data" sketch:type="MSLayerGroup" transform="translate(31.000000, 231.000000)" stroke-width="3">
                <path d="M0.08203125,-0.0859375 C2.99990552,7.77284855 3.69369225,16.5784266 4.08203125,24.9140625 C5.86604758,63.2076942 2.91360973,21.9275586 6.08203125,14.9570312 C7.51159922,11.8119817 21.2375052,-5.42107289 24.0820312,5.95703125 C24.6830808,8.36122962 20.4242533,27.2992533 15.0820312,21.9570312 C10.4571709,17.3321709 39.0343672,23.0046953 27.0820312,34.9570312 C23.9605876,38.0784749 12.1059158,37.9092622 15.0820312,31.9570312" id="Path" sketch:type="MSShapeGroup"></path>
                <path d="M43.0820313,18.9570312 C41.7072761,24.6770775 41.5414891,33.0868844 44.0820313,38.1679688" id="Path" sketch:type="MSShapeGroup"></path>
                <path d="M64.953125,22.5898438 C48.986055,18.4698886 66.953125,41.3905764 66.953125,21.5898438 C66.953125,17.8630638 67.5735827,29.1277993 68.953125,32.5898438 C71.6572674,39.3760519 77.8201941,54.7892993 74.0820312,62.265625 C71.284806,67.8600755 63.2290989,58.8715197 62.0820312,57.265625 C54.3604148,46.455362 71.011757,33.8228912 78.1640625,29.0546875" id="Path" sketch:type="MSShapeGroup"></path>
                <path d="M118.40625,18.8007812 L118.40625,35.265625 C118.40625,39.748577 119.110399,65.703389 120.40625,46.265625 C120.990647,37.4996746 116.461267,3.95471337 136.488281,11.4648438 C152.052223,17.301322 150.425628,54.3397928 122.699219,45.0976562" id="Path" sketch:type="MSShapeGroup"></path>
                <path d="M159.699219,32.0976562 C154.983596,29.3393051 148.800439,39.1988761 151.699219,42.0976562 C158.189715,48.5881522 165.610391,34.0976562 163.699219,34.0976562 C157.445171,34.0976562 161.085826,48.0976562 169.699219,48.0976562" id="Path" sketch:type="MSShapeGroup"></path>
                <path d="M179.699219,20.0976562 C180.553011,5.16919496 180.742188,44.8516655 180.742188,49.6875" id="Path" sketch:type="MSShapeGroup"></path>
                <path d="M176.742188,38.6875 C180.688019,34.9363394 187.075413,32.8541129 190.742188,34.6875" id="Path" sketch:type="MSShapeGroup"></path>
                <path d="M198.742187,37.6875 C196.774415,37.7937017 200.714013,34.6593253 199.742187,33.6875 C194.93286,28.878173 184.644129,50.9533037 198.742187,44.6875 C201.201542,43.5944534 205.742187,38.6688809 205.742187,35.6875 C205.742187,35.1416793 203.576477,43.104645 210.742187,46.6875" id="Path" sketch:type="MSShapeGroup"></path>
            </g>
            <path d="M397.761719,188.542969 C401.068154,200.961943 396.665527,214.873044 399.761719,227.257812 C400.544947,230.390727 416.194459,225.383622 418.015625,225.214844 C421.75269,224.868507 441.357576,228.169767 444.3125,225.214844 C445.581796,223.945548 442.747865,221.956303 442.3125,220.214844 C440.767563,214.035095 441.3125,214.388835 441.3125,206.878906 C441.3125,203.247975 443.765041,185.077541 441.3125,182.625 C440.462663,181.775163 439.387468,184.087516 438.3125,184.625 C435.104597,186.228951 430.721933,187.703116 427.3125,188.625 C421.789607,190.118347 408.942603,190.725964 407.058594,191.667969" id="Path" stroke-width="3" sketch:type="MSShapeGroup"></path>
            <g id="Small-Data" sketch:type="MSLayerGroup" transform="translate(366.000000, 238.000000)" stroke-width="2">
                <path d="M6.90234375,16.5664062 C3.34153074,13.1523384 -0.72712046,18.3074778 0.90234375,21.5664062 C1.17737067,22.1164601 6.32394612,21.373607 6.90234375,21.5664062 C15.0630174,24.2866308 8.51753882,31.5664062 2.90234375,31.5664062 L-0.09765625,31.5664062" id="Path" sketch:type="MSShapeGroup"></path>
                <path d="M17.9023438,23.5664062 C18.3370399,34.686103 16.1507692,29.9018389 20.9023438,23.5664062 C22.1297477,21.9298677 24.2674655,22.6617715 24.9023438,24.5664062 C24.9959767,24.8473051 24.8368007,29.5664062 24.9023438,29.5664062 C25.0893971,29.5664062 29.9023438,6.08752152 29.9023438,31.5664062" id="Path" sketch:type="MSShapeGroup"></path>
                <path d="M39.9023438,24.5664062 C43.192021,14.4544781 34.5180995,26.182162 36.9023438,28.5664062 C38.7422468,30.4063093 41.065825,25.5664062 40.9023438,25.5664062 C39.0548019,25.5664062 45.4008264,30.3992338 45.9023438,30.5664062" id="Path" sketch:type="MSShapeGroup"></path>
                <path d="M60.9023438,11.8203125 C63.6953938,16.799354 61.9023438,24.5219228 61.9023438,30.8203125" id="Path" sketch:type="MSShapeGroup"></path>
                <path d="M50.9023438,11.8203125 C57.3081286,15.5741031 51.9983029,25.0122307 54.9023438,30.8203125" id="Path" sketch:type="MSShapeGroup"></path>
                <path d="M91.9023438,12.8203125 C91.770314,41.3214294 93.1531748,21.8203125 84.9023438,21.8203125 C77.2546998,21.8203125 79.0917617,30.8203125 90.9023438,30.8203125" id="Path" sketch:type="MSShapeGroup"></path>
                <path d="M105.902344,24.8203125 C105.56901,23.8203125 105.235677,22.8203125 104.902344,21.8203125 L103.902344,21.8203125 C91.7650431,26.6766222 107.902344,30.1542348 107.902344,24.8203125 C107.902344,23.1536458 106.723832,28.6418012 107.902344,29.8203125 C109.349557,31.2675261 111.098629,30.8203125 112.902344,30.8203125" id="Path" sketch:type="MSShapeGroup"></path>
                <path d="M116.902344,18.0273438 C121.043109,17.7548555 123.907684,16.0273438 127.902344,16.0273438" id="Path" sketch:type="MSShapeGroup"></path>
                <path d="M117.902344,0.02734375 C123.00625,9.89015709 120.902344,21.7688121 120.902344,32.6210938" id="Path" sketch:type="MSShapeGroup"></path>
                <path d="M135.902344,23.6210938 C144.115908,13.5957938 128.982364,24.7011145 132.902344,28.6210938 C136.954008,32.6727581 144.454517,22.1732675 142.902344,20.6210938 C139.949003,17.6677529 144.850394,30.6081062 148.902344,31.6210937" id="Path" sketch:type="MSShapeGroup"></path>
            </g>
            <path d="M260.601562,125.925781 C298.181919,123.892476 336.722025,122.43898 368.371094,146.175781 C375.766288,151.722177 382.255211,157.040584 388.371094,164.175781 C390.371094,166.509115 392.198026,173.348849 394.371094,171.175781 C397.252776,168.294099 387.387905,147.192593 389.371094,149.175781 C392.218774,152.023461 390.671722,157.678924 391.371094,161.175781 C394.119371,174.917166 380.772527,164.588698 372.035156,161.09375" id="Path" stroke-width="2" sketch:type="MSShapeGroup"></path>
        </g>
    </g>
</svg>