<?xml version="1.0"?>
<?xml-stylesheet href="svg.css" type="text/css"?>
<svg width="570" height="300" xmlns="http://www.w3.org/2000/svg">
 <!-- Created with Method Draw - http://github.com/duopixel/Method-Draw/ -->
 <g>
  <title>Layer 1</title>
  <path stroke="#000" id="svg_1" d="m114.052505,52.376747c0,5.707016 -19.251709,10.333271 -43.000336,10.333271m43.000336,-10.333271l0,0c0,5.707016 -19.251709,10.333271 -43.000336,10.333271c-23.747856,0 -42.999664,-4.626255 -42.999664,-10.333271m0,0l0,0c0,-5.706944 19.251808,-10.333412 42.999664,-10.333412c23.748627,0 43.000336,4.626469 43.000336,10.333412l0,41.333191c0,5.706856 -19.251709,10.333397 -43.000336,10.333397c-23.747856,0 -42.999664,-4.626541 -42.999664,-10.333397l0,-41.333191z" stroke-opacity="null" stroke-width="1.5" fill="none"/>
  <path stroke="#000" id="svg_2" d="m399.052521,54.083412c0,5.707016 -19.25174,10.333275 -43.000336,10.333275m43.000336,-10.333275l0,0c0,5.707016 -19.25174,10.333275 -43.000336,10.333275c-23.747864,0 -42.999664,-4.626259 -42.999664,-10.333275m0,0l0,0c0,-5.706944 19.251801,-10.333412 42.999664,-10.333412c23.748596,0 43.000336,4.626469 43.000336,10.333412l0,41.333191c0,5.706856 -19.25174,10.333397 -43.000336,10.333397c-23.747864,0 -42.999664,-4.626541 -42.999664,-10.333397l0,-41.333191z" stroke-opacity="null" stroke-width="1.5" fill="none"/>
  <path id="svg_3" d="m217.289276,92.418839l-1.722565,-6.029022c0.504852,-0.44281 0.978638,-0.916626 1.425903,-1.423645l6.024567,1.722542c0.635406,-0.925491 1.182312,-1.908546 1.671661,-2.929253l-4.483582,-4.33963c0.214783,-0.63768 0.400757,-1.286392 0.53363,-1.95504l6.042267,-1.514458c0.044281,-0.557968 0.086365,-1.118149 0.086365,-1.689377s-0.044281,-1.129173 -0.086365,-1.687134l-6.042267,-1.514442c-0.135101,-0.668663 -0.321075,-1.31739 -0.53363,-1.955055l4.485779,-4.339645c-0.491547,-1.018494 -1.038452,-2.003757 -1.673859,-2.929264l-6.024567,1.720371c-0.445038,-0.504807 -0.921051,-0.97863 -1.425903,-1.423676l1.722565,-6.026787c-0.925476,-0.633236 -1.910767,-1.182327 -2.931458,-1.67165l-4.33963,4.485771c-0.635468,-0.214756 -1.286407,-0.398529 -1.955048,-0.533592l-1.512238,-6.044495c-0.560181,-0.042072 -1.118103,-0.086357 -1.689362,-0.086357s-1.129181,0.044285 -1.687164,0.086357l-1.514435,6.044495c-0.668671,0.135063 -1.317413,0.318836 -1.955048,0.533592l-4.339661,-4.485771c-1.018463,0.49596 -2.001541,1.04285 -2.927032,1.678303l1.722565,6.026772c-0.504791,0.442822 -0.980835,0.918854 -1.42366,1.421463l-6.026779,-1.722572c-0.635452,0.925491 -1.182327,1.910767 -1.671646,2.931458l4.485764,4.339653c-0.21254,0.637672 -0.398529,1.286392 -0.5336,1.955048l-6.044495,1.514465c-0.042068,0.557945 -0.086349,1.118126 -0.086349,1.687134s0.044281,1.129219 0.086349,1.689369l6.044495,1.514427c0.135071,0.668663 0.32106,1.317413 0.5336,1.95507l-4.485764,4.339638c0.489319,1.018501 1.036194,2.003769 1.671646,2.92926l6.026779,-1.72258c0.442825,0.507034 0.918869,0.978645 1.42366,1.42366l-1.722565,6.029037c0.925491,0.633209 1.910767,1.180084 2.92926,1.671638l4.33963,-4.485786c0.637695,0.214752 1.286438,0.400734 1.955078,0.533615l1.514435,6.042282c0.557953,0.044296 1.118103,0.086319 1.689362,0.086319s1.129181,-0.04425 1.689362,-0.086319l1.512238,-6.042282c0.66864,-0.135086 1.319611,-0.321083 1.955048,-0.533615l4.339661,4.485786c1.016235,-0.495964 2.001526,-1.042862 2.927002,-1.676079zm-12.425507,-10.629921c-4.155884,0 -7.525757,-3.369865 -7.525757,-7.525742s3.369873,-7.523521 7.525757,-7.523521s7.523499,3.367653 7.523499,7.523521s-3.367615,7.525742 -7.523499,7.525742zm34.300873,15.731178c0.042084,-1.211105 -0.132874,-2.444344 -0.509247,-3.662102l2.754364,-3.925629c-0.41629,-0.774895 -0.885681,-1.509987 -1.419281,-2.17865l-4.698303,0.985268c-0.947662,-0.805939 -2.025909,-1.434738 -3.179443,-1.884209l-1.352844,-4.603127c-0.854614,-0.150543 -1.720367,-0.23246 -2.597107,-0.234665l-2.156555,4.286491c-0.617737,0.119553 -1.235443,0.283394 -1.842133,0.515892c-0.569031,0.216988 -1.100403,0.487099 -1.60968,0.78157l-4.441467,-1.813362c-0.657593,0.580101 -1.257629,1.206703 -1.800079,1.886429l2.008179,4.357353c-0.573425,1.095978 -0.967529,2.276093 -1.149109,3.509384l-4.186859,2.346893c0.042053,0.85907 0.168274,1.718201 0.363129,2.579468l4.658478,1.149094c0.511414,1.160187 1.197815,2.198616 2.028107,3.084229l-0.779358,4.73378c0.708496,0.50927 1.461304,0.94767 2.242889,1.328438l3.79715,-2.922607c1.186768,0.312202 2.428894,0.431747 3.679871,0.332123l3.214874,3.558052c0.44281,-0.126175 0.883453,-0.261238 1.319611,-0.427299c0.387451,-0.146126 0.752747,-0.318871 1.118073,-0.493736l0.08194,-4.793541c1.007446,-0.750549 1.866486,-1.653923 2.550629,-2.670227l4.78476,-0.2967c0.336487,-0.794823 0.617676,-1.620697 0.814758,-2.468697l-3.695343,-3.059914zm-9.217316,4.44371c-2.659149,1.014076 -5.634888,-0.318771 -6.651154,-2.977936s0.316589,-5.637146 2.975739,-6.653374c2.659119,-1.014053 5.639313,0.318794 6.655609,2.977966c1.014069,2.659157 -0.321075,5.637093 -2.980194,6.653343z" stroke-opacity="null" stroke-width="1.5" stroke="#000" fill="none"/>
  <rect id="svg_5" height="48" width="114" y="168" x="304.5" fill-opacity="null" stroke-opacity="null" stroke-width="1.5" stroke="#000" fill="none"/>
  <text xml:space="preserve" text-anchor="left" font-family="Helvetica, Arial, sans-serif" font-size="13" id="svg_6" y="85" x="44.5" stroke-opacity="null" stroke-width="0" stroke="#000" fill="#000000">raw logs</text>
  <text xml:space="preserve" text-anchor="left" font-family="Helvetica, Arial, sans-serif" font-size="13" id="svg_7" y="86" x="322.5" stroke-opacity="null" stroke-width="0" stroke="#000" fill="#000000">compressed</text>
  <text xml:space="preserve" text-anchor="left" font-family="Helvetica, Arial, sans-serif" font-size="13" id="svg_8" y="129" x="144.5" fill-opacity="null" stroke-opacity="null" stroke-width="0" stroke="#000" fill="#000000">Map/Reduce jobs (EMR)</text>
  <text xml:space="preserve" text-anchor="left" font-family="Helvetica, Arial, sans-serif" font-size="13" id="svg_9" y="31" x="79.5" fill-opacity="null" stroke-opacity="null" stroke-width="0" stroke="#000" fill="#000000">30 TB/day .gz</text>
  <text style="cursor: move;" xml:space="preserve" text-anchor="left" font-family="Helvetica, Arial, sans-serif" font-size="13" id="svg_10" y="30" x="285.5" fill-opacity="null" stroke-opacity="null" stroke-width="0" stroke="#000" fill="#000000">20 GB/day</text>
  <text xml:space="preserve" text-anchor="left" font-family="Helvetica, Arial, sans-serif" font-size="13" id="svg_11" y="196" x="317.5" fill-opacity="null" stroke-opacity="null" stroke-width="0" stroke="#000" fill="#000000">DeliRoll servers</text>
  <path transform="rotate(90 147.6449890136719,77.44679260253908) " id="svg_13" d="m136.644989,77.396164l11,-20.949371l11,20.949371l-5.5,0l0,21.050629l-11,0l0,-21.050629l-5.5,0z" fill-opacity="null" stroke-opacity="null" stroke-width="1.5" stroke="#000" fill="none"/>
  <path transform="rotate(90 276.64498901367193,78.44679260253909) " id="svg_14" d="m265.644989,78.396164l11,-20.949371l11,20.949371l-5.5,0l0,21.050629l-11,0l0,-21.050629l-5.5,0z" fill-opacity="null" stroke-opacity="null" stroke-width="1.5" stroke="#000" fill="none"/>
  <path transform="rotate(180 359.6449890136719,136.44679260253906) " id="svg_15" d="m348.644989,136.396164l11,-20.949371l11,20.949371l-5.5,0l0,21.050629l-11,0l0,-21.050629l-5.5,0z" fill-opacity="null" stroke-opacity="null" stroke-width="1.5" stroke="#000" fill="none"/>
  <text xml:space="preserve" text-anchor="left" font-family="Helvetica, Arial, sans-serif" font-size="13" id="svg_16" y="42" x="17.5" fill-opacity="null" stroke-opacity="null" stroke-width="0" stroke="#000" fill="#000000">S3</text>
  <text xml:space="preserve" text-anchor="left" font-family="Helvetica, Arial, sans-serif" font-size="13" id="svg_17" y="45" x="389.5" fill-opacity="null" stroke-opacity="null" stroke-width="0" stroke="#000" fill="#000000">S3</text>
 </g>
</svg>