<?xml version="1.0"?>
<?xml-stylesheet href="svg.css" type="text/css"?>
<svg xmlns="http://www.w3.org/2000/svg" xmlns:xlink="http://www.w3.org/1999/xlink" version="1.1" id="v-2" width="580" height="400" viewBox="280 260 270 234"><defs id="v-4" style="cursor: -webkit-grabbing; font-family: 'Source Sans Pro', sans-serif; -webkit-user-select: none;"/><g id="v-3" class="viewport" transform="" style="cursor: -webkit-grabbing; font-family: 'Source Sans Pro', sans-serif; -webkit-user-select: none;"><g id="j_25" model-id="41265e43-b3a3-46c5-8995-abdfc02af18f" class="element basic Rect" fill="#FFFFFF" stroke="none" transform="translate(280,260)" style="cursor: move; font-family: 'Source Sans Pro', sans-serif; -webkit-user-select: none;"><g class="rotatable" id="v-194" transform="rotate(0,85,20)" style="cursor: move; font-family: 'Source Sans Pro', sans-serif; -webkit-user-select: none; vector-effect: non-scaling-stroke;"><g class="scalable" id="v-197" transform="scale(3.4,1.3333333333333333)" style="cursor: move; font-family: 'Source Sans Pro', sans-serif; -webkit-user-select: none; vector-effect: non-scaling-stroke;"><rect id="v-195" fill="#ffffff" stroke="black" width="50" height="30" rx="2" ry="2" stroke-width="1" stroke-dasharray="0" style="cursor: move; font-family: 'Source Sans Pro', sans-serif; -webkit-user-select: none; vector-effect: non-scaling-stroke;"/></g><text id="v-196" y="0.8em" display="null" xml:space="preserve" font-size="10" fill="#000000" font-family="Helvetica" stroke="#000000" stroke-width="0" transform="translate(17,14.5)" font-weight="400" style="cursor: move; -webkit-user-select: none; vector-effect: non-scaling-stroke;">www.example.com/some/page</text></g></g><g id="j_38" model-id="8694df22-d357-4b9a-9b78-4eb9fa2e130c" class="element basic Rect" fill="#FFFFFF" stroke="none" transform="translate(300,340)" style="cursor: move; font-family: 'Source Sans Pro', sans-serif; -webkit-user-select: none;"><g class="rotatable" id="v-224" transform="rotate(0,45,27)" style="cursor: move; font-family: 'Source Sans Pro', sans-serif; -webkit-user-select: none; vector-effect: non-scaling-stroke;"><g class="scalable" id="v-227" transform="scale(1.8,1.8)" style="cursor: move; font-family: 'Source Sans Pro', sans-serif; -webkit-user-select: none; vector-effect: non-scaling-stroke;"><rect id="v-225" fill="#ffffff" stroke="black" width="50" height="30" rx="2" ry="2" stroke-width="1" stroke-dasharray="0" style="cursor: move; font-family: 'Source Sans Pro', sans-serif; -webkit-user-select: none; vector-effect: non-scaling-stroke;"/></g><text id="v-226" y="0.8em" display="null" xml:space="preserve" font-size="10" fill="#000000" font-family="Helvetica" stroke="#000000" stroke-width="0" font-weight="400" transform="translate(11.5,21.5)" style="cursor: move; -webkit-user-select: none; vector-effect: non-scaling-stroke;">RTB Exchange</text></g></g><g id="j_35" model-id="5d42b88f-a58f-4802-9531-c58e3142f355" class="link" style="pointer-events: visiblepainted; cursor: -webkit-grabbing; font-family: 'Source Sans Pro', sans-serif; -webkit-user-select: none;"><path class="connection" stroke="black" id="v-207" d="M 351 300 351 330" style="cursor: -webkit-grabbing; font-family: 'Source Sans Pro', sans-serif; -webkit-user-select: none; fill: none; stroke-linejoin: round;"/><path class="marker-source" fill="black" stroke="black" id="v-208" d="M 10 0 L 0 5 L 10 10 z" transform="translate(351.0050000003539,300.0000048824586) scale(0.001,0.001) rotate(-270)" style="cursor: -webkit-grabbing; font-family: 'Source Sans Pro', sans-serif; -webkit-user-select: none; vector-effect: non-scaling-stroke;"/><path class="marker-target" fill="black" stroke="black" id="v-209" d="M 10 0 L 0 5 L 10 10 z" transform="translate(346,340) scale(1,1) rotate(-90)" style="cursor: -webkit-grabbing; font-family: 'Source Sans Pro', sans-serif; -webkit-user-select: none; vector-effect: non-scaling-stroke;"/><path class="connection-wrap" id="v-210" d="M 351 300 351 330" style="cursor: move; font-family: 'Source Sans Pro', sans-serif; opacity: 0; z-index: 0; -webkit-user-select: none; fill: none; stroke: rgb(0, 0, 0); stroke-linecap: round; stroke-linejoin: round; stroke-width: 15px;"/><g class="labels" id="v-211" style="cursor: -webkit-grabbing; font-family: 'Source Sans Pro', sans-serif; -webkit-user-select: none;"/><g class="marker-vertices" id="v-212" style="cursor: move; font-family: 'Source Sans Pro', sans-serif; opacity: 0; z-index: 0; -webkit-user-select: none;"/><g class="marker-arrowheads" id="v-213" style="cursor: -webkit-grab; font-family: 'Source Sans Pro', sans-serif; opacity: 0; z-index: 0; -webkit-user-select: none;"><g class="marker-arrowhead-group marker-arrowhead-group-source" id="v-216" transform="translate(357.5,300) scale(0.5,0.5) rotate(-270)" style="cursor: -webkit-grab; font-family: 'Source Sans Pro', sans-serif; -webkit-user-select: none;"><path class="marker-arrowhead" end="source" d="M 26 0 L 0 13 L 26 26 z" style="cursor: -webkit-grab; font-family: 'Source Sans Pro', sans-serif; -webkit-user-select: none; fill: rgb(26, 188, 156);"/></g><g class="marker-arrowhead-group marker-arrowhead-group-target" id="v-217" transform="translate(344.5,340) scale(0.5,0.5) rotate(-90)" style="cursor: -webkit-grab; font-family: 'Source Sans Pro', sans-serif; -webkit-user-select: none;"><path class="marker-arrowhead" end="target" d="M 26 0 L 0 13 L 26 26 z" style="cursor: -webkit-grab; font-family: 'Source Sans Pro', sans-serif; -webkit-user-select: none; fill: rgb(26, 188, 156);"/></g></g><g class="link-tools" id="v-214" style="cursor: pointer; font-family: 'Source Sans Pro', sans-serif; opacity: 0; z-index: 0; -webkit-user-select: none;"><g class="link-tool" id="v-215" transform="translate(351, 320) scale(.5)" style="cursor: pointer; font-family: 'Source Sans Pro', sans-serif; -webkit-user-select: none;"><g class="tool-remove" event="remove" style="cursor: pointer; font-family: 'Source Sans Pro', sans-serif; -webkit-user-select: none;"><circle r="11" style="cursor: pointer; font-family: 'Source Sans Pro', sans-serif; -webkit-user-select: none; fill: rgb(255, 0, 0);"/><path transform="scale(.8) translate(-16, -16)" d="M24.778,21.419 19.276,15.917 24.777,10.415 21.949,7.585 16.447,13.087 10.945,7.585 8.117,10.415 13.618,15.917 8.116,21.419 10.946,24.248 16.447,18.746 21.948,24.248z" style="cursor: pointer; font-family: 'Source Sans Pro', sans-serif; -webkit-user-select: none; fill: rgb(255, 255, 255);"/><title style="cursor: pointer; font-family: 'Source Sans Pro', sans-serif; -webkit-user-select: none;">Remove link.</title></g><g class="tool-options" event="link:options" id="v-229" style="cursor: pointer; display: block; font-family: 'Source Sans Pro', sans-serif; -webkit-user-select: none;"><circle r="11" transform="translate(25)" style="cursor: pointer; font-family: 'Source Sans Pro', sans-serif; -webkit-user-select: none;"/><path fill="white" transform="scale(.55) translate(29, -16)" d="M31.229,17.736c0.064-0.571,0.104-1.148,0.104-1.736s-0.04-1.166-0.104-1.737l-4.377-1.557c-0.218-0.716-0.504-1.401-0.851-2.05l1.993-4.192c-0.725-0.91-1.549-1.734-2.458-2.459l-4.193,1.994c-0.647-0.347-1.334-0.632-2.049-0.849l-1.558-4.378C17.165,0.708,16.588,0.667,16,0.667s-1.166,0.041-1.737,0.105L12.707,5.15c-0.716,0.217-1.401,0.502-2.05,0.849L6.464,4.005C5.554,4.73,4.73,5.554,4.005,6.464l1.994,4.192c-0.347,0.648-0.632,1.334-0.849,2.05l-4.378,1.557C0.708,14.834,0.667,15.412,0.667,16s0.041,1.165,0.105,1.736l4.378,1.558c0.217,0.715,0.502,1.401,0.849,2.049l-1.994,4.193c0.725,0.909,1.549,1.733,2.459,2.458l4.192-1.993c0.648,0.347,1.334,0.633,2.05,0.851l1.557,4.377c0.571,0.064,1.148,0.104,1.737,0.104c0.588,0,1.165-0.04,1.736-0.104l1.558-4.377c0.715-0.218,1.399-0.504,2.049-0.851l4.193,1.993c0.909-0.725,1.733-1.549,2.458-2.458l-1.993-4.193c0.347-0.647,0.633-1.334,0.851-2.049L31.229,17.736zM16,20.871c-2.69,0-4.872-2.182-4.872-4.871c0-2.69,2.182-4.872,4.872-4.872c2.689,0,4.871,2.182,4.871,4.872C20.871,18.689,18.689,20.871,16,20.871z" style="cursor: pointer; font-family: 'Source Sans Pro', sans-serif; -webkit-user-select: none;"/><title style="cursor: pointer; font-family: 'Source Sans Pro', sans-serif; -webkit-user-select: none;">Link options.</title></g></g></g></g><g id="j_40" model-id="3e5d3942-926e-4e2a-86f8-9ffa34463826" class="element basic Rect" fill="#FFFFFF" stroke="none" transform="translate(460,340)" style="cursor: move; font-family: 'Source Sans Pro', sans-serif; -webkit-user-select: none;"><g class="rotatable" id="v-236" transform="rotate(0,45,27)" style="cursor: move; font-family: 'Source Sans Pro', sans-serif; -webkit-user-select: none; vector-effect: non-scaling-stroke;"><g class="scalable" id="v-239" transform="scale(1.8,1.8)" style="cursor: move; font-family: 'Source Sans Pro', sans-serif; -webkit-user-select: none; vector-effect: non-scaling-stroke;"><rect id="v-237" fill="#ffffff" stroke="black" width="50" height="30" rx="2" ry="2" stroke-width="1" stroke-dasharray="0" style="cursor: move; font-family: 'Source Sans Pro', sans-serif; -webkit-user-select: none; vector-effect: non-scaling-stroke;"/></g><text id="v-238" y="0.8em" display="null" xml:space="preserve" font-size="10" fill="#000000" font-family="Arial" stroke="#000000" stroke-width="0" transform="translate(23,21.5)" font-weight="400" style="cursor: move; -webkit-user-select: none; vector-effect: non-scaling-stroke;">Ad Server</text></g></g><g id="j_43" model-id="e8766ec4-33e3-499c-8dd4-e3a7fed75b31" class="element basic Rect" fill="#FFFFFF" stroke="none" transform="translate(300,440)" style="cursor: move; font-family: 'Source Sans Pro', sans-serif; -webkit-user-select: none;"><g class="rotatable" id="v-245" transform="rotate(0,45,27)" style="cursor: move; font-family: 'Source Sans Pro', sans-serif; -webkit-user-select: none; vector-effect: non-scaling-stroke;"><g class="scalable" id="v-248" transform="scale(1.8,1.8)" style="cursor: move; font-family: 'Source Sans Pro', sans-serif; -webkit-user-select: none; vector-effect: non-scaling-stroke;"><rect id="v-246" fill="#ffffff" stroke="black" width="50" height="30" rx="2" ry="2" stroke-width="1" stroke-dasharray="0" style="cursor: move; font-family: 'Source Sans Pro', sans-serif; -webkit-user-select: none; vector-effect: non-scaling-stroke;"/></g><text id="v-247" y="0.8em" display="null" xml:space="preserve" font-size="10" fill="#000000" font-family="Arial" stroke="#000000" stroke-width="0" transform="translate(14.5,21.5)" font-weight="400" style="cursor: move; -webkit-user-select: none; vector-effect: non-scaling-stroke;">Bidder Server</text></g></g><g id="j_47" model-id="ac6416d7-89e0-4d9d-a0db-bc94f81ba28c" class="link" style="pointer-events: visiblepainted; cursor: -webkit-grabbing; font-family: 'Source Sans Pro', sans-serif; -webkit-user-select: none;"><path class="connection" stroke="black" id="v-249" d="M 345 440 345 404" style="cursor: -webkit-grabbing; font-family: 'Source Sans Pro', sans-serif; -webkit-user-select: none; fill: none; stroke-linejoin: round;"/><path class="marker-source" fill="black" stroke="black" id="v-250" d="M 10 0 L 0 5 L 10 10 z" transform="translate(344.9949999996461,439.9999951175414) scale(0.001,0.001) rotate(-90)" style="cursor: -webkit-grabbing; font-family: 'Source Sans Pro', sans-serif; -webkit-user-select: none; vector-effect: non-scaling-stroke;"/><path class="marker-target" fill="black" stroke="black" id="v-251" d="M 10 0 L 0 5 L 10 10 z" transform="translate(350,394) scale(1,1) rotate(-270)" style="cursor: -webkit-grabbing; font-family: 'Source Sans Pro', sans-serif; -webkit-user-select: none; vector-effect: non-scaling-stroke;"/><path class="connection-wrap" id="v-252" d="M 345 440 345 404" style="cursor: move; font-family: 'Source Sans Pro', sans-serif; opacity: 0; z-index: 0; -webkit-user-select: none; fill: none; stroke: rgb(0, 0, 0); stroke-linecap: round; stroke-linejoin: round; stroke-width: 15px;"/><g class="labels" id="v-253" style="cursor: -webkit-grabbing; font-family: 'Source Sans Pro', sans-serif; -webkit-user-select: none;"/><g class="marker-vertices" id="v-254" style="cursor: move; font-family: 'Source Sans Pro', sans-serif; opacity: 0; z-index: 0; -webkit-user-select: none;"/><g class="marker-arrowheads" id="v-255" style="cursor: -webkit-grab; font-family: 'Source Sans Pro', sans-serif; opacity: 0; z-index: 0; -webkit-user-select: none;"><g class="marker-arrowhead-group marker-arrowhead-group-source" id="v-258" transform="translate(338.5,440) scale(0.5,0.5) rotate(-90)" style="cursor: -webkit-grab; font-family: 'Source Sans Pro', sans-serif; -webkit-user-select: none;"><path class="marker-arrowhead" end="source" d="M 26 0 L 0 13 L 26 26 z" style="cursor: -webkit-grab; font-family: 'Source Sans Pro', sans-serif; -webkit-user-select: none; fill: rgb(26, 188, 156);"/></g><g class="marker-arrowhead-group marker-arrowhead-group-target" id="v-259" transform="translate(351.5,394) scale(0.5,0.5) rotate(-270)" style="cursor: -webkit-grab; font-family: 'Source Sans Pro', sans-serif; -webkit-user-select: none;"><path class="marker-arrowhead" end="target" d="M 26 0 L 0 13 L 26 26 z" style="cursor: -webkit-grab; font-family: 'Source Sans Pro', sans-serif; -webkit-user-select: none; fill: rgb(26, 188, 156);"/></g></g><g class="link-tools" id="v-256" style="cursor: pointer; font-family: 'Source Sans Pro', sans-serif; opacity: 0; z-index: 0; -webkit-user-select: none;"><g class="link-tool" id="v-257" transform="translate(345, 420) scale(.5)" style="cursor: pointer; font-family: 'Source Sans Pro', sans-serif; -webkit-user-select: none;"><g class="tool-remove" event="remove" style="cursor: pointer; font-family: 'Source Sans Pro', sans-serif; -webkit-user-select: none;"><circle r="11" style="cursor: pointer; font-family: 'Source Sans Pro', sans-serif; -webkit-user-select: none; fill: rgb(255, 0, 0);"/><path transform="scale(.8) translate(-16, -16)" d="M24.778,21.419 19.276,15.917 24.777,10.415 21.949,7.585 16.447,13.087 10.945,7.585 8.117,10.415 13.618,15.917 8.116,21.419 10.946,24.248 16.447,18.746 21.948,24.248z" style="cursor: pointer; font-family: 'Source Sans Pro', sans-serif; -webkit-user-select: none; fill: rgb(255, 255, 255);"/><title style="cursor: pointer; font-family: 'Source Sans Pro', sans-serif; -webkit-user-select: none;">Remove link.</title></g><g class="tool-options" event="link:options" style="cursor: pointer; display: block; font-family: 'Source Sans Pro', sans-serif; -webkit-user-select: none;"><circle r="11" transform="translate(25)" style="cursor: pointer; font-family: 'Source Sans Pro', sans-serif; -webkit-user-select: none;"/><path fill="white" transform="scale(.55) translate(29, -16)" d="M31.229,17.736c0.064-0.571,0.104-1.148,0.104-1.736s-0.04-1.166-0.104-1.737l-4.377-1.557c-0.218-0.716-0.504-1.401-0.851-2.05l1.993-4.192c-0.725-0.91-1.549-1.734-2.458-2.459l-4.193,1.994c-0.647-0.347-1.334-0.632-2.049-0.849l-1.558-4.378C17.165,0.708,16.588,0.667,16,0.667s-1.166,0.041-1.737,0.105L12.707,5.15c-0.716,0.217-1.401,0.502-2.05,0.849L6.464,4.005C5.554,4.73,4.73,5.554,4.005,6.464l1.994,4.192c-0.347,0.648-0.632,1.334-0.849,2.05l-4.378,1.557C0.708,14.834,0.667,15.412,0.667,16s0.041,1.165,0.105,1.736l4.378,1.558c0.217,0.715,0.502,1.401,0.849,2.049l-1.994,4.193c0.725,0.909,1.549,1.733,2.459,2.458l4.192-1.993c0.648,0.347,1.334,0.633,2.05,0.851l1.557,4.377c0.571,0.064,1.148,0.104,1.737,0.104c0.588,0,1.165-0.04,1.736-0.104l1.558-4.377c0.715-0.218,1.399-0.504,2.049-0.851l4.193,1.993c0.909-0.725,1.733-1.549,2.458-2.458l-1.993-4.193c0.347-0.647,0.633-1.334,0.851-2.049L31.229,17.736zM16,20.871c-2.69,0-4.872-2.182-4.872-4.871c0-2.69,2.182-4.872,4.872-4.872c2.689,0,4.871,2.182,4.871,4.872C20.871,18.689,18.689,20.871,16,20.871z" style="cursor: pointer; font-family: 'Source Sans Pro', sans-serif; -webkit-user-select: none;"/><title style="cursor: pointer; font-family: 'Source Sans Pro', sans-serif; -webkit-user-select: none;">Link options.</title></g></g></g></g><g id="j_51" model-id="7f6e04aa-5464-4fb2-8f0f-511c69ce4aba" class="link" style="pointer-events: visiblepainted; cursor: -webkit-grabbing; font-family: 'Source Sans Pro', sans-serif; -webkit-user-select: none;"><path class="connection" stroke="black" id="v-271" d="M 390 367 450 367" style="cursor: -webkit-grabbing; font-family: 'Source Sans Pro', sans-serif; -webkit-user-select: none; fill: none; stroke-linejoin: round;"/><path class="marker-source" fill="black" stroke="black" id="v-272" d="M 10 0 L 0 5 L 10 10 z" transform="translate(390.0000048824586,366.9949999996461) scale(0.001,0.001) rotate(0)" style="cursor: -webkit-grabbing; font-family: 'Source Sans Pro', sans-serif; -webkit-user-select: none; vector-effect: non-scaling-stroke;"/><path class="marker-target" fill="black" stroke="black" id="v-273" d="M 10 0 L 0 5 L 10 10 z" transform="translate(460,372) scale(1,1) rotate(-180)" style="cursor: -webkit-grabbing; font-family: 'Source Sans Pro', sans-serif; -webkit-user-select: none; vector-effect: non-scaling-stroke;"/><path class="connection-wrap" id="v-274" d="M 390 367 450 367" style="cursor: move; font-family: 'Source Sans Pro', sans-serif; opacity: 0; z-index: 0; -webkit-user-select: none; fill: none; stroke: rgb(0, 0, 0); stroke-linecap: round; stroke-linejoin: round; stroke-width: 15px;"/><g class="labels" id="v-275" style="cursor: -webkit-grabbing; font-family: 'Source Sans Pro', sans-serif; -webkit-user-select: none;"/><g class="marker-vertices" id="v-276" style="cursor: move; font-family: 'Source Sans Pro', sans-serif; opacity: 0; z-index: 0; -webkit-user-select: none;"/><g class="marker-arrowheads" id="v-277" style="cursor: -webkit-grab; font-family: 'Source Sans Pro', sans-serif; opacity: 0; z-index: 0; -webkit-user-select: none;"><g class="marker-arrowhead-group marker-arrowhead-group-source" id="v-280" transform="translate(390,360.5) scale(0.5,0.5) rotate(0)" style="cursor: -webkit-grab; font-family: 'Source Sans Pro', sans-serif; -webkit-user-select: none;"><path class="marker-arrowhead" end="source" d="M 26 0 L 0 13 L 26 26 z" style="cursor: -webkit-grab; font-family: 'Source Sans Pro', sans-serif; -webkit-user-select: none; fill: rgb(26, 188, 156);"/></g><g class="marker-arrowhead-group marker-arrowhead-group-target" id="v-281" transform="translate(460,373.5) scale(0.5,0.5) rotate(-180)" style="cursor: -webkit-grab; font-family: 'Source Sans Pro', sans-serif; -webkit-user-select: none;"><path class="marker-arrowhead" end="target" d="M 26 0 L 0 13 L 26 26 z" style="cursor: -webkit-grab; font-family: 'Source Sans Pro', sans-serif; -webkit-user-select: none; fill: rgb(26, 188, 156);"/></g></g><g class="link-tools" id="v-278" style="cursor: pointer; font-family: 'Source Sans Pro', sans-serif; opacity: 0; z-index: 0; -webkit-user-select: none;"><g class="link-tool" id="v-279" transform="translate(410, 367) scale(.5)" style="cursor: pointer; font-family: 'Source Sans Pro', sans-serif; -webkit-user-select: none;"><g class="tool-remove" event="remove" style="cursor: pointer; font-family: 'Source Sans Pro', sans-serif; -webkit-user-select: none;"><circle r="11" style="cursor: pointer; font-family: 'Source Sans Pro', sans-serif; -webkit-user-select: none; fill: rgb(255, 0, 0);"/><path transform="scale(.8) translate(-16, -16)" d="M24.778,21.419 19.276,15.917 24.777,10.415 21.949,7.585 16.447,13.087 10.945,7.585 8.117,10.415 13.618,15.917 8.116,21.419 10.946,24.248 16.447,18.746 21.948,24.248z" style="cursor: pointer; font-family: 'Source Sans Pro', sans-serif; -webkit-user-select: none; fill: rgb(255, 255, 255);"/><title style="cursor: pointer; font-family: 'Source Sans Pro', sans-serif; -webkit-user-select: none;">Remove link.</title></g><g class="tool-options" event="link:options" style="cursor: pointer; display: block; font-family: 'Source Sans Pro', sans-serif; -webkit-user-select: none;"><circle r="11" transform="translate(25)" style="cursor: pointer; font-family: 'Source Sans Pro', sans-serif; -webkit-user-select: none;"/><path fill="white" transform="scale(.55) translate(29, -16)" d="M31.229,17.736c0.064-0.571,0.104-1.148,0.104-1.736s-0.04-1.166-0.104-1.737l-4.377-1.557c-0.218-0.716-0.504-1.401-0.851-2.05l1.993-4.192c-0.725-0.91-1.549-1.734-2.458-2.459l-4.193,1.994c-0.647-0.347-1.334-0.632-2.049-0.849l-1.558-4.378C17.165,0.708,16.588,0.667,16,0.667s-1.166,0.041-1.737,0.105L12.707,5.15c-0.716,0.217-1.401,0.502-2.05,0.849L6.464,4.005C5.554,4.73,4.73,5.554,4.005,6.464l1.994,4.192c-0.347,0.648-0.632,1.334-0.849,2.05l-4.378,1.557C0.708,14.834,0.667,15.412,0.667,16s0.041,1.165,0.105,1.736l4.378,1.558c0.217,0.715,0.502,1.401,0.849,2.049l-1.994,4.193c0.725,0.909,1.549,1.733,2.459,2.458l4.192-1.993c0.648,0.347,1.334,0.633,2.05,0.851l1.557,4.377c0.571,0.064,1.148,0.104,1.737,0.104c0.588,0,1.165-0.04,1.736-0.104l1.558-4.377c0.715-0.218,1.399-0.504,2.049-0.851l4.193,1.993c0.909-0.725,1.733-1.549,2.458-2.458l-1.993-4.193c0.347-0.647,0.633-1.334,0.851-2.049L31.229,17.736zM16,20.871c-2.69,0-4.872-2.182-4.872-4.871c0-2.69,2.182-4.872,4.872-4.872c2.689,0,4.871,2.182,4.871,4.872C20.871,18.689,18.689,20.871,16,20.871z" style="cursor: pointer; font-family: 'Source Sans Pro', sans-serif; -webkit-user-select: none;"/><title style="cursor: pointer; font-family: 'Source Sans Pro', sans-serif; -webkit-user-select: none;">Link options.</title></g></g></g></g></g></svg>